<?xml version="1.0" encoding="UTF-8"?>
<svg xmlns="http://www.w3.org/2000/svg" xmlns:xlink="http://www.w3.org/1999/xlink" width="51pt" height="51pt" viewBox="0 0 51 51" version="1.1">
<g id="surface1">
<path style=" stroke:none;fill-rule:nonzero;fill:rgb(0%,0%,0%);fill-opacity:1;" d="M 24.121094 16.984375 C 21.878906 19.914062 22.007812 23.585938 24.378906 25.421875 L 25.246094 26.0625 L 26.164062 25.371094 C 27.515625 24.351562 28.152344 22.746094 28 20.78125 C 27.921875 19.941406 27.667969 18.871094 27.4375 18.410156 C 26.953125 17.46875 25.550781 15.808594 25.21875 15.808594 C 25.117188 15.808594 24.609375 16.34375 24.121094 16.984375 Z M 24.121094 16.984375 "/>
<path style=" stroke:none;fill-rule:nonzero;fill:rgb(0%,0%,0%);fill-opacity:1;" d="M 16.957031 16.421875 C 16.550781 16.625 15.988281 16.933594 15.734375 17.136719 C 15.300781 17.46875 15.324219 17.542969 16.140625 18.613281 C 16.625 19.253906 17.210938 20.324219 17.46875 21.039062 C 18.003906 22.515625 19.941406 24.609375 20.988281 24.863281 C 21.90625 25.09375 21.980469 25.015625 21.675781 23.945312 C 21.367188 22.898438 21.34375 20.859375 21.648438 19.585938 C 21.851562 18.742188 21.800781 18.5625 21.039062 17.746094 C 20.246094 16.882812 18.769531 16.066406 18.054688 16.066406 C 17.875 16.089844 17.390625 16.242188 16.957031 16.421875 Z M 16.957031 16.421875 "/>
<path style=" stroke:none;fill-rule:nonzero;fill:rgb(0%,0%,0%);fill-opacity:1;" d="M 31.390625 16.472656 C 30.90625 16.675781 30.140625 17.238281 29.707031 17.722656 C 28.941406 18.511719 28.890625 18.691406 29.09375 19.558594 C 29.402344 20.910156 29.375 22.976562 29.042969 23.945312 C 28.6875 24.9375 28.839844 25.117188 29.757812 24.863281 C 30.804688 24.609375 32.742188 22.515625 33.277344 21.039062 C 33.53125 20.324219 34.117188 19.253906 34.601562 18.613281 C 35.417969 17.542969 35.445312 17.46875 35.011719 17.136719 C 34.425781 16.675781 32.996094 16.066406 32.589844 16.066406 C 32.410156 16.089844 31.875 16.242188 31.390625 16.472656 Z M 31.390625 16.472656 "/>
<path style=" stroke:none;fill-rule:nonzero;fill:rgb(0%,0%,0%);fill-opacity:1;" d="M 24.378906 27.15625 C 24.148438 27.386719 23.96875 27.640625 23.96875 27.71875 C 23.96875 28.101562 25.117188 29.835938 25.320312 29.757812 C 25.449219 29.734375 25.804688 29.273438 26.113281 28.738281 C 26.519531 28.023438 26.597656 27.71875 26.367188 27.363281 C 25.984375 26.75 24.914062 26.648438 24.378906 27.15625 Z M 24.378906 27.15625 "/>
<path style=" stroke:none;fill-rule:nonzero;fill:rgb(0%,0%,0%);fill-opacity:1;" d="M 23.308594 33.53125 C 22.875 33.863281 22.875 33.890625 23.28125 33.914062 C 23.664062 33.914062 23.714844 34.246094 23.714844 37.050781 C 23.714844 39.140625 23.816406 40.289062 24.019531 40.492188 C 24.453125 40.925781 26.289062 40.875 26.929688 40.417969 C 29.019531 38.964844 27.691406 35.035156 25.449219 35.953125 L 24.863281 36.183594 L 25.449219 36.183594 C 26.699219 36.234375 27.464844 38.097656 26.878906 39.652344 C 26.671875 40.1875 25.730469 40.546875 25.015625 40.367188 C 24.503906 40.238281 24.480469 40.085938 24.480469 36.695312 C 24.480469 32.945312 24.402344 32.714844 23.308594 33.53125 Z M 23.308594 33.53125 "/>
<path style=" stroke:none;fill-rule:nonzero;fill:rgb(0%,0%,0%);fill-opacity:1;" d="M 32.386719 33.429688 C 32.105469 33.632812 32.078125 33.738281 32.335938 33.839844 C 32.5625 33.914062 32.640625 34.859375 32.640625 37.253906 C 32.640625 40.75 32.765625 41.132812 33.863281 40.671875 C 34.273438 40.46875 34.273438 40.46875 33.863281 40.367188 C 33.457031 40.265625 33.40625 39.882812 33.40625 36.695312 C 33.40625 33.046875 33.328125 32.765625 32.386719 33.429688 Z M 32.386719 33.429688 "/>
<path style=" stroke:none;fill-rule:nonzero;fill:rgb(0%,0%,0%);fill-opacity:1;" d="M 35.191406 33.53125 C 34.933594 33.839844 34.933594 33.914062 35.292969 33.914062 C 35.648438 33.914062 35.699219 34.347656 35.699219 37.230469 C 35.699219 40.75 35.828125 41.132812 36.925781 40.671875 C 37.332031 40.46875 37.332031 40.46875 36.925781 40.367188 C 36.515625 40.265625 36.464844 39.882812 36.464844 36.695312 C 36.464844 33.40625 36.441406 33.148438 35.980469 33.148438 C 35.726562 33.148438 35.367188 33.328125 35.191406 33.53125 Z M 35.191406 33.53125 "/>
<path style=" stroke:none;fill-rule:nonzero;fill:rgb(0%,0%,0%);fill-opacity:1;" d="M 46.15625 33.53125 C 45.898438 33.839844 45.898438 33.914062 46.257812 33.914062 C 46.5625 33.914062 46.664062 34.171875 46.664062 34.910156 C 46.664062 35.878906 46.664062 35.878906 45.621094 35.878906 C 44.089844 35.878906 43.222656 36.820312 43.222656 38.480469 C 43.222656 40.492188 44.625 41.4375 46.078125 40.417969 C 46.5625 40.085938 46.640625 40.085938 46.765625 40.417969 C 46.921875 40.851562 47.839844 40.925781 48.066406 40.546875 C 48.144531 40.390625 48.042969 40.289062 47.839844 40.289062 C 47.480469 40.289062 47.429688 39.78125 47.429688 36.71875 C 47.429688 33.40625 47.40625 33.148438 46.945312 33.148438 C 46.691406 33.148438 46.332031 33.328125 46.15625 33.53125 Z M 46.359375 36.441406 C 46.589844 36.566406 46.664062 37.101562 46.613281 38.148438 C 46.539062 39.449219 46.460938 39.679688 45.847656 40.007812 C 45.238281 40.367188 45.136719 40.367188 44.652344 39.933594 C 43.910156 39.269531 43.910156 37.433594 44.625 36.71875 C 45.160156 36.183594 45.796875 36.082031 46.359375 36.441406 Z M 46.359375 36.441406 "/>
<path style=" stroke:none;fill-rule:nonzero;fill:rgb(0%,0%,0%);fill-opacity:1;" d="M 29.65625 34.066406 C 29.453125 34.578125 29.859375 34.984375 30.320312 34.707031 C 30.703125 34.449219 30.523438 33.660156 30.089844 33.660156 C 29.9375 33.660156 29.757812 33.839844 29.65625 34.066406 Z M 29.65625 34.066406 "/>
<path style=" stroke:none;fill-rule:nonzero;fill:rgb(0%,0%,0%);fill-opacity:1;" d="M 40.621094 34.066406 C 40.417969 34.578125 40.824219 34.984375 41.285156 34.707031 C 41.667969 34.449219 41.488281 33.660156 41.054688 33.660156 C 40.902344 33.660156 40.722656 33.839844 40.621094 34.066406 Z M 40.621094 34.066406 "/>
<path style=" stroke:none;fill-rule:nonzero;fill:rgb(0%,0%,0%);fill-opacity:1;" d="M 3.058594 36.082031 C 2.601562 36.335938 2.550781 36.441406 2.855469 36.464844 C 3.160156 36.464844 3.316406 36.769531 3.441406 37.664062 C 3.722656 39.804688 4.132812 40.671875 4.945312 40.75 C 5.40625 40.800781 5.863281 40.648438 6.222656 40.316406 L 6.78125 39.804688 L 7.089844 40.316406 C 7.546875 41.03125 8.617188 40.851562 9.257812 39.984375 C 9.589844 39.523438 9.792969 38.761719 9.894531 37.535156 C 9.996094 35.851562 9.96875 35.75 9.511719 35.851562 C 9.078125 35.980469 9.050781 36.183594 9.128906 37.585938 C 9.257812 39.472656 8.898438 40.367188 8.082031 40.238281 C 7.421875 40.136719 7.191406 39.421875 7.164062 37.332031 C 7.140625 35.800781 7.113281 35.777344 6.503906 35.902344 C 5.992188 35.980469 5.914062 36.082031 6.121094 36.464844 C 6.476562 37.101562 6.453125 38.863281 6.070312 39.652344 C 5.863281 40.113281 5.609375 40.289062 5.253906 40.238281 C 4.792969 40.164062 4.667969 39.855469 4.386719 38.121094 C 4.207031 37 3.976562 36.007812 3.875 35.902344 C 3.773438 35.800781 3.417969 35.902344 3.058594 36.082031 Z M 3.058594 36.082031 "/>
<path style=" stroke:none;fill-rule:nonzero;fill:rgb(0%,0%,0%);fill-opacity:1;" d="M 12.570312 36.058594 C 12.136719 36.261719 11.652344 36.644531 11.5 36.949219 C 11.09375 37.6875 11.167969 39.574219 11.628906 40.238281 C 12.085938 40.902344 13.539062 41.003906 14.023438 40.417969 C 14.203125 40.214844 14.433594 40.035156 14.558594 40.035156 C 14.6875 40.035156 14.789062 40.214844 14.789062 40.417969 C 14.789062 40.851562 15.9375 40.953125 16.191406 40.546875 C 16.269531 40.390625 16.167969 40.289062 15.964844 40.289062 C 15.425781 40.289062 15.199219 39.269531 15.375 37.460938 C 15.503906 36.058594 15.476562 35.953125 14.96875 35.953125 C 14.664062 35.953125 14.179688 35.902344 13.898438 35.828125 C 13.617188 35.75 13.03125 35.878906 12.570312 36.058594 Z M 14.484375 36.515625 C 14.664062 36.695312 14.789062 37.359375 14.789062 37.996094 C 14.789062 40.085938 12.878906 41.082031 12.214844 39.320312 C 11.5 37.484375 13.285156 35.316406 14.484375 36.515625 Z M 14.484375 36.515625 "/>
<path style=" stroke:none;fill-rule:nonzero;fill:rgb(0%,0%,0%);fill-opacity:1;" d="M 17.59375 36.007812 C 17.210938 36.160156 17.085938 36.3125 17.289062 36.386719 C 17.46875 36.464844 17.59375 37 17.59375 37.816406 C 17.59375 38.554688 17.746094 39.421875 17.925781 39.78125 C 18.308594 40.570312 19.40625 40.75 20.296875 40.164062 L 20.910156 39.78125 L 20.910156 40.875 C 20.910156 42.101562 20.347656 43.09375 19.636719 43.09375 C 18.945312 43.09375 18.511719 42.226562 18.871094 41.566406 C 19.074219 41.183594 19.074219 41.054688 18.792969 41.054688 C 18.335938 41.054688 17.851562 41.589844 17.851562 42.074219 C 17.851562 43.402344 19.941406 43.910156 21.011719 42.867188 C 21.496094 42.382812 21.546875 41.972656 21.625 39.039062 L 21.726562 35.75 L 21.039062 35.902344 C 20.554688 35.980469 20.449219 36.109375 20.628906 36.285156 C 21.039062 36.695312 20.960938 38.8125 20.503906 39.472656 C 20.09375 40.058594 19.023438 40.238281 18.71875 39.753906 C 18.640625 39.601562 18.488281 38.632812 18.386719 37.613281 C 18.234375 35.777344 18.234375 35.777344 17.59375 36.007812 Z M 17.59375 36.007812 "/>
<path style=" stroke:none;fill-rule:nonzero;fill:rgb(0%,0%,0%);fill-opacity:1;" d="M 29.578125 36.007812 C 29.199219 36.160156 29.070312 36.3125 29.273438 36.386719 C 29.476562 36.464844 29.578125 37.101562 29.578125 38.328125 C 29.578125 40.570312 29.785156 40.925781 30.753906 40.671875 C 31.414062 40.492188 31.441406 40.46875 30.984375 40.289062 C 30.550781 40.136719 30.445312 39.804688 30.34375 37.945312 L 30.21875 35.777344 Z M 29.578125 36.007812 "/>
<path style=" stroke:none;fill-rule:nonzero;fill:rgb(0%,0%,0%);fill-opacity:1;" d="M 40.546875 36.007812 C 40.164062 36.160156 40.035156 36.3125 40.238281 36.386719 C 40.441406 36.464844 40.546875 37.101562 40.546875 38.25 C 40.546875 40.390625 40.699219 40.800781 41.4375 40.800781 C 42.203125 40.800781 42.484375 40.390625 41.820312 40.214844 C 41.386719 40.113281 41.308594 39.832031 41.257812 37.917969 L 41.183594 35.777344 Z M 40.546875 36.007812 "/>
<path style=" stroke:none;fill-rule:nonzero;fill:rgb(0%,0%,0%);fill-opacity:1;" d="M 38.121094 40.035156 C 37.917969 40.390625 38.199219 40.800781 38.65625 40.800781 C 38.863281 40.800781 39.015625 40.570312 39.015625 40.289062 C 39.015625 39.753906 38.402344 39.574219 38.121094 40.035156 Z M 38.121094 40.035156 "/>
</g>
</svg>
